<?xml version="1.0" standalone="no"?>
<!DOCTYPE svg PUBLIC "-//W3C//DTD SVG 1.1//EN" "http://www.w3.org/Graphics/SVG/1.1/DTD/svg11.dtd" >
<!--
2018-6-25: Created.
-->
<svg xmlns="http://www.w3.org/2000/svg">
<metadata>
Created by FontForge 20120731 at Mon Jun 25 12:01:53 2018
 By icons8

</metadata>
<defs>
<font id="font_icons8" horiz-adv-x="512" >
  <font-face 
    font-family="font_icons8"
    font-weight="500"
    font-stretch="normal"
    units-per-em="512"
    panose-1="2 0 6 3 0 0 0 0 0 0"
    ascent="448"
    descent="-64"
    bbox="-0.115723 -64 514 448"
    underline-thickness="25.6"
    underline-position="-51.2"
    unicode-range="U+0020-F114"
  />
    <missing-glyph />
    <glyph glyph-name="space" unicode=" " horiz-adv-x="200" 
 />
    <glyph glyph-name="css3" unicode="&#xf103;" 
d="M430.08 386.56l-30.7197 -348.159l-143.36 -40.96l-143.36 40.96l-30.7197 348.159h348.16zM172.04 161.28l3.08008 -56.3203l80.8799 -26.6396l80.8799 26.6396l7.2002 117.76l5.12012 81.9199h-187.4l3.08008 -40.96h141.28l-3.04004 -40.96h-94.2402l2.08008 -40.96
h90.0801l-3.04004 -46.0801l-42 -14.3193l-42 14.3193l-1 25.6006h-40.96z" />
    <glyph glyph-name="jquery" unicode="&#xf10a;" 
d="M305.84 417.2c3.28027 0.439453 6.64062 -0.719727 8.95996 -3.28027c3.08008 -3.40039 3.52051 -8.43945 1.08008 -12.3203c-18.2402 -29.0801 -6.04004 -79.4395 25.1602 -103.64c5.28027 -4.08008 11.1201 -7.75977 17.3203 -10.8398
c3.12012 -1.52051 6.47949 -2.91992 9.83984 -4.12012c2.55957 -0.959961 5.43945 -1.95996 8.08008 -2.59961c35.4795 -8.80078 61.0801 -2.12012 76.04 19.9199h0.0400391c3.19922 4.67969 9.55957 5.87988 14.1992 2.71973
c4.68066 -3.2002 5.88086 -9.55957 2.7207 -14.2402c-0.0400391 -0.0400391 -0.0400391 -0.0400391 -0.0400391 -0.0800781c-0.480469 -0.639648 -1 -1.67969 -1.7207 -2.95996c-7.23926 -13.2002 -29 -52.7998 -85.1191 -52.7998
c-1.28027 0 -2.56055 0.0400391 -3.84082 0.0400391c-7.43945 0.240234 -15.3594 1.16016 -23.4795 2.7998c-1.59961 0.320312 -3.24023 0.839844 -4.83984 1.36035l-1.12012 0.399414c-0.240234 0.0400391 -1.75977 0.520508 -1.91992 0.600586
c-1.7998 0.639648 -2.7998 1 -3.83984 1.35938c-30.8408 11.6006 -56.7607 36.4004 -69.2402 66.3604c-5.36035 12.9199 -8 26.3203 -7.87988 39.8398c0.200195 18.04 5.47949 35.3604 15.3594 50.1602c0.0800781 0.160156 0.200195 0.320312 0.320312 0.480469
c1.91992 2.55957 11.9199 15.5195 20.7197 19.8799c1.04004 0.479492 2.12012 0.799805 3.2002 0.959961zM215.12 396.8c2.32031 0 4.63965 -0.839844 6.51953 -2.43945c3.80078 -3.2002 4.7207 -8.64062 2.24023 -12.9199
c-19.1201 -33.04 -25.4395 -69.3203 -16.9199 -97.04c9.16016 -30.2002 28.6797 -58.3604 55.0801 -79.4404l1.12012 -0.919922c2.83984 -2.24023 5.28027 -4.08008 7.75977 -5.83984c1.12012 -0.719727 2.28027 -1.48047 3.48047 -2.24023
c0.0800781 -0.0800781 0.879883 -0.639648 0.959961 -0.679688l0.959961 -0.600586c1.35938 -0.959961 2.83984 -1.87988 4.31934 -2.75977l1 -0.599609l1 -0.560547c1.80078 -1.08008 2.95996 -1.7998 4.28027 -2.43945l5.83984 -3.04004
c2.12012 -1.04004 4.48047 -2.2002 6.91992 -3.24023l1.32031 -0.599609c2 -0.880859 3.63965 -1.52051 5.28027 -2.16016l2.83984 -1.08008c2 -0.759766 3.75977 -1.36035 5.55957 -1.91992c0.839844 -0.320312 1.28027 -0.480469 1.80078 -0.640625
c3.0791 -1 5.55957 -1.71973 8.11914 -2.35938c55.1602 -14.5605 109.32 3.12012 137.96 44.96c2.84082 4.16016 8.28027 5.67969 12.8408 3.51953c4.55957 -2.16016 6.83984 -7.31934 5.43945 -12.1602c-0.280273 -0.959961 -29.6797 -97 -142.72 -99.4795
c-1.48047 0 -3 -0.0400391 -4.52051 -0.0400391c-12.8398 0 -26.3994 1.2002 -40.3594 3.51953c-2.83984 0.480469 -5.44043 1.36035 -7.68066 2.12012l-4.47949 1.48047c-1.95996 0.639648 -3.91992 1.31934 -5.83984 2
c-0.0800781 0.0400391 -1.08008 0.399414 -1.16016 0.479492l-1.2002 0.44043c-2.63965 1 -4.7998 1.87988 -6.91992 2.7998l-3.24023 1.44043c-2.12012 0.959961 -4.23926 1.95996 -6.2793 3c-0.160156 0.0800781 -0.880859 0.399414 -1.04004 0.479492l-3.12012 1.64062
c-1.40039 0.759766 -2 1.0791 -2.56055 1.39941c-1.2793 0.639648 -3.23926 1.75977 -5.08008 2.87988c-2.83984 1.64062 -4.83984 2.87988 -6.87988 4.24023l-1.12012 0.719727l-0.959961 0.640625c-0.959961 0.679688 -1.91992 1.2793 -2.87988 1.91992
c-0.280273 0.200195 -0.55957 0.399414 -0.839844 0.599609c-2.75977 1.95996 -5.44043 3.95996 -8.08008 6.08008l-0.919922 0.679688c-3.40039 2.68066 -5.95996 4.80078 -8.47949 7.04004c-0.200195 0.200195 -0.44043 0.360352 -0.600586 0.600586h-0.0400391
c-2.24023 2 -4.39941 4.08008 -6.51953 6.12012l-0.839844 0.839844l-1 1.04004c-2.08008 2.08008 -4.2002 4.23926 -6.16016 6.47949c-5.68066 5.12012 -10.1201 11.6807 -14.0801 17.4805l-1.40039 2c-4.67969 6.7998 -9.08008 14.2002 -12.96 21.96
c-24.7598 49 -22.6396 107 5.36035 147.76c0.120117 0.160156 0.200195 0.280273 0.279297 0.44043c0.680664 0.839844 16.5205 21.4795 32 34.0801c1.9209 1.59961 4.28027 2.35938 6.60059 2.31934zM102.44 366.08c2.43945 0 4.91992 -0.879883 6.83984 -2.63965
c3.91992 -3.56055 4.47949 -9.48047 1.35938 -13.6807c-31.04 -41.96 -20.6396 -156.52 19.2002 -211.399c1.48047 -2.08008 2.95996 -4.04004 4.44043 -6.04004c0.679688 -0.800781 1.23926 -1.56055 1.75977 -2.32031l4.32031 -5.28027
c2.35938 -2.7998 4.12012 -4.83984 5.95996 -6.87988c2 -2.2002 3.75977 -4.04004 5.51953 -5.83984l7.24023 -7.2002c2.47949 -2.35938 4.55957 -4.24023 6.59961 -6.12012c0.280273 -0.199219 0.480469 -0.359375 0.720703 -0.599609
c1.83984 -1.56055 3.59961 -3.16016 5.47949 -4.67969l2.24023 -1.84082c1.2002 -0.959961 2.47949 -1.91992 3.75977 -2.91992c1.44043 -1.08008 2.32031 -1.7998 3.2002 -2.43945c1.40039 -1.04004 3.08008 -2.32031 4.7998 -3.52051l1 -0.719727
c2.52051 -1.75977 4.24023 -2.91992 6 -4.04004c1 -0.679688 1.52051 -1.08008 2.12012 -1.43945c2.55957 -1.64062 5.16016 -3.2002 7.67969 -4.76074c0.839844 -0.439453 1.7207 -0.959961 2.56055 -1.51953l8.35938 -4.48047
c1.84082 -1 3.28027 -1.75977 4.7207 -2.47949c0.160156 -0.0400391 1.7998 -0.839844 1.95996 -0.919922c2.08008 -1.04004 4.16016 -2 6.31934 -3l1.40039 -0.600586c2.40039 -1.08008 4.87988 -2.12012 7.36035 -3.12012l2.23926 -0.879883
c1.95996 -0.759766 4.2002 -1.63965 6.44043 -2.39941c0 0 1.16016 -0.44043 1.2002 -0.44043c2.51953 -0.879883 5.12012 -1.75977 7.71973 -2.55957l3.83984 -1.16016c1.95996 -0.600586 3.95996 -1.16016 5.91992 -1.64062
c81.2803 -18.6797 152.28 -0.279297 189.92 49.2803c3.12012 4.04004 8.7207 5.2002 13.1201 2.75977c4.48047 -2.47949 6.44043 -7.83984 4.64062 -12.5996c-0.480469 -1.2002 -47.2002 -119.24 -193.881 -119.24h-0.0390625c-17.6006 0 -36.2002 1.7998 -55.2402 5.28027
c-2.68066 0.519531 -5.16016 1.32031 -7.64062 2.08008l-2.04004 0.639648c-0.0791016 0 -0.719727 0.200195 -1.31934 0.400391c-3.60059 1.12012 -6.40039 2.04004 -9.24023 3c-0.200195 0.0800781 -1.28027 0.519531 -1.48047 0.599609
c-2.11914 0.760742 -4.71973 1.7207 -7.19922 2.68066c-0.120117 0.0400391 -0.680664 0.239258 -1.24023 0.479492c-3.48047 1.40039 -6.12012 2.52051 -8.83984 3.67969c0 0 -0.959961 0.44043 -0.959961 0.480469c-2.95996 1.32031 -5.32031 2.40039 -7.64062 3.55957
c-0.199219 0.0800781 -1.83984 0.880859 -2.04004 1c-2.31934 1.12012 -3.83984 1.95996 -5.23926 2.7207c-1 0.519531 -2.16016 1.08008 -3.32031 1.71973c-1.95996 1.04004 -4.04004 2.24023 -6.08008 3.44043l-1.75977 1
c-3.28027 1.95996 -5.95996 3.59961 -8.64062 5.35938l-7.35938 4.91992c-0.200195 0.120117 -0.520508 0.360352 -0.799805 0.600586c-0.680664 0.439453 -1.36035 0.919922 -2 1.39941c-1.91992 1.40039 -3.60059 2.60059 -5.24023 3.7998l-9.7998 7.76074
c-1.91992 1.55957 -3.80078 3.16016 -5.68066 4.83984c-0.120117 0.0800781 -1.55957 1.32031 -1.63965 1.43945c-1.52051 1.28027 -3.52051 3.12012 -5.44043 4.95996l-1.59961 1.48047s-0.759766 0.719727 -0.759766 0.759766
c-1.60059 1.48047 -3.12012 3.04004 -4.64062 4.64062l-1.83984 1.75977c-1.91992 2.04004 -3.75977 4 -5.55957 5.95996c-0.280273 0.320312 -0.560547 0.599609 -0.839844 0.919922c-1.87988 2.08008 -3.76074 4.24023 -5.52051 6.40039l-0.839844 0.959961
c-0.0400391 0.0791016 -0.679688 0.839844 -0.759766 0.919922l-5.83984 7.39941c-1.32031 1.64062 -2.80078 3.64062 -4.24023 5.7207l-0.640625 0.879883c-0.0791016 0.0800781 -0.15918 0.15918 -0.239258 0.279297c-1.76074 2.36035 -3.36035 4.84082 -4.95996 7.32031
c-0.320312 0.400391 -0.800781 1.08008 -1.28027 1.83984l-1.59961 2.56055c-0.680664 1.08008 -1.36035 2.15918 -2 3.19922c-0.160156 0.280273 -0.640625 1.08008 -1.12012 1.84082l-3.28027 5.63965c-0.879883 1.51953 -1.36035 2.40039 -1.83984 3.40039
c-0.200195 0.239258 -0.680664 1.0791 -1 1.83984c-0.200195 0.239258 -0.799805 1.43945 -1.32031 2.59961l-0.399414 0.639648c-0.600586 1.16016 -1.2002 2.32031 -1.76074 3.52051c-28.7197 57.8799 -36.7998 152.56 5.04004 213.479
c1.60059 2.60059 16.2402 25.3604 35.7998 42.9209c1.95996 1.75977 4.44043 2.63965 6.88086 2.63965z" />
    <glyph glyph-name="about-me" unicode="&#xf100;" 
d="M256 396.767c39.0654 0 51.2002 -25.5996 51.2002 -25.5996c34.9355 0 51.2002 -35.3623 51.2002 -76.8008c0 -20.667 -9 -37.7666 -9 -37.7666c3.61816 -2.08203 9.56836 -8.67383 8.06641 -20.4326c-2.79883 -21.8965 -12.292 -27.4727 -18.333 -27.9336
c-2.30469 -20.4287 -24.2539 -46.5605 -31.9336 -50.3672v-34.1328c1.41602 -4.28418 3.93066 -7.77441 6.86621 -11c-14.3018 -12.3389 -33.7295 -23.1338 -58.0664 -23.1338s-43.7646 10.7949 -58.0664 23.1338c2.93555 3.22559 5.4502 6.71582 6.86621 11v34.1328
c-7.67969 3.80664 -29.6289 29.9385 -31.9336 50.3672c-6.04102 0.460938 -15.5342 6.03711 -18.333 27.9336c-1.50195 11.7588 4.44824 18.3682 8.06641 20.4326c0 0 -9 18.9258 -9 37.7666c0 55.9619 30.0039 102.4 102.4 102.4zM166.6 95.167
c19.4561 -19.7119 49.0547 -39.7002 89.4004 -39.7002s69.9443 19.9883 89.4004 39.7002c46.0283 -15.6338 115.399 -22.7363 115.399 -107.967h-409.6c0 85.2305 69.3711 92.333 115.399 107.967z" />
    <glyph glyph-name="github" unicode="&#xf105;" 
d="M256 384c106.062 0 192 -85.9375 192 -192c0 -84.8125 -54.9375 -156.75 -131.188 -182.188c-9.75 -1.875 -13.1875 4.125 -13.1875 9.25c0 6.3125 0.1875 27 0.1875 52.6875c0 17.875 -6.125 29.625 -13 35.5c42.75 4.8125 87.625 21 87.625 94.75
c0 21 -7.375 38.125 -19.6875 51.5625c2 4.8125 8.5625 24.375 -1.9375 50.8125c0 0 -16.0625 5.125 -52.75 -19.6875c-15.3125 4.25 -31.75 6.375 -48.0625 6.4375c-16.3125 -0.0625 -32.75 -2.1875 -48.0625 -6.4375c-36.6875 24.8125 -52.8125 19.6875 -52.8125 19.6875
c-10.4375 -26.4375 -3.8125 -46 -1.875 -50.8125c-12.25 -13.4375 -19.75 -30.5625 -19.75 -51.5625c0 -73.5625 44.8125 -90.0625 87.4375 -94.875c-5.4375 -4.8125 -10.4375 -13.25 -12.1875 -25.6875c-10.9375 -4.875 -38.75 -13.375 -55.875 16
c0 0 -10.125 18.375 -29.375 19.75c0 0 -18.75 0.25 -1.3125 -11.625c0 0 12.5625 -5.9375 21.3125 -28.125c0 0 11.25 -37.3125 64.6875 -25.75c0.0625 -16 0.25 -28.0625 0.25 -32.625c0 -5.125 -3.5 -11 -13.125 -9.25c-76.3125 25.375 -131.312 97.375 -131.312 182.188
c0 106.062 85.9375 192 192 192z" />
    <glyph glyph-name="chat-message" unicode="&#xf101;" 
d="M256 444.308c139.308 0 252.308 -99.7695 252.308 -222.77s-113 -222.769 -252.308 -222.769c-18.3076 0 -36.3076 1.61523 -53.5381 4.92285c-17.7695 -8.84668 -135.231 -65.7695 -194.462 -41.2305c-4.53809 16.3076 61.7695 40.4609 72 99.6924
c-47 40.4609 -76.3076 96.8457 -76.3076 159.384c0 123 113 222.77 252.308 222.77z" />
    <glyph glyph-name="copyright" unicode="&#xf102;" 
d="M256 405.333c117.583 0 213.333 -95.75 213.333 -213.333s-95.75 -213.333 -213.333 -213.333s-213.333 95.75 -213.333 213.333s95.75 213.333 213.333 213.333zM256 362.667c-94.5 0 -170.667 -76.167 -170.667 -170.667s76.167 -170.667 170.667 -170.667
s170.667 76.167 170.667 170.667s-76.167 170.667 -170.667 170.667zM258 298.667c78.917 0 83.167 -64 85.333 -74.667h-44.666c-2.16699 34.167 -21.5 38.667 -40.667 38.667c-14.917 0 -44.667 -4.83398 -44.667 -66.667v-14.667c0 -68.25 34.167 -66 42.667 -66
c40.5 0 38.417 25.167 42.667 38h44.666c-6.41602 -57.583 -51.166 -74.666 -85.333 -74.666c-27.75 0 -87.333 15.166 -87.333 102.666v14.667c0 78.917 48.916 102.667 87.333 102.667z" />
    <glyph glyph-name="travel" unicode="&#xf111;" 
d="M210.667 446.667c28.833 -0.583984 62.666 -12.667 98.666 -39.334c0 0 155.584 117.5 183.334 -66c-76.834 64 -151.167 40.417 -164 12.667c53.333 19.167 270.5 -44.917 134 -222c-4.25 108.833 -89.334 179.75 -153.334 184
c-46.916 -6.41699 -151.583 -49.5 -168.666 -186c-87.5 181.333 36.416 245.333 126 234.667c-38.417 38.416 -128.25 29.75 -156 -40.667c-4.41699 70.417 36.5 124 100 122.667zM311.333 294.667l21.334 -13.334s21.583 -170.666 -46.667 -256
c-2.16699 0 -4.5 -2 -6.66699 -2c-36.25 -10.666 -76.5 -23.333 -132 -23.333h-10.666c55.5 23.5 143.083 89.333 147.333 281.333zM2 21.333c0 0 40.667 -42.666 147.333 -42.666c104.5 0 160 42.666 224 42.666c96 0 140.667 -85.333 140.667 -85.333
s-30 42.667 -115.333 42.667c-70.417 0 -132.25 -42.667 -234.667 -42.667c-115.167 0 -162 85.333 -162 85.333z" />
    <glyph glyph-name="html-5" unicode="&#xf107;" 
d="M463.6 424.2c1.95996 -2.12012 2.91992 -4.95996 2.64062 -7.83984l-36 -403.721c-0.400391 -4.23926 -3.32031 -7.75977 -7.40039 -8.95996l-164.08 -46.7998c-0.919922 -0.280273 -1.83984 -0.399414 -2.7998 -0.399414s-1.91992 0.119141 -2.7998 0.399414
l-163.96 46.7998c-4.08008 1.2002 -7.04004 4.7207 -7.40039 8.95996l-36.04 403.721c-0.279297 2.87988 0.680664 5.71973 2.64062 7.83984c1.91992 2.12012 4.67969 3.31934 7.55957 3.31934h400.08c2.87988 0 5.63965 -1.19922 7.55957 -3.31934zM377.32 285
l4.43945 49.7998h-251.479l13.5596 -151.6h174.521l-5.95996 -65.9199l-55.8809 -11.9199l-56.9199 11.9199l-2.15918 24.3594h-49.8809l5.56055 -62.7598l101.8 -30.8398l1 -0.320312l103 31.1201l13.7598 154.04h-183.399l-4.60059 52.1201h192.641z" />
    <glyph glyph-name="linkedin" unicode="&#xf10b;" 
d="M416 448c53 0 96 -43 96 -96v-320c0 -53 -43 -96 -96 -96h-320c-53 0 -96 43 -96 96v320c0 53 43 96 96 96h320zM158.308 13.3848l-0.461914 238.153h-79.5381l0.461914 -238.153h79.5381zM116.538 282.692c26.9238 0 43.7695 17.9229 43.7695 40.2305
c-0.538086 22.8467 -16.7695 40.1543 -43.2305 40.1543c-26.4619 0 -43.7695 -17.3076 -43.7695 -40.1543c0 -22.3076 16.7695 -40.2305 42.7695 -40.2305h0.460938zM434.077 13.3848h-0.0771484v138.308c0 71.4619 -38.0771 104.692 -89 104.692
c-41.0771 0 -58.2305 -22.5391 -68.5381 -38.4619l-0.461914 33.6152h-80.6152l0.460938 -238.153h80.6162v134.846c0 7 0.538086 13.8467 2.61523 18.8467c5.53809 13.9229 17.0771 28.3076 38.4609 28.3076c28 0 36.3076 -21.3076 36.3076 -52.6152v-129.385h80.2314z" />
    <glyph glyph-name="email-envelope" unicode="&#xf104;" 
d="M452.923 369.23c33.4619 0 59.0771 -25.6152 59.0771 -59.0762v-236.309c0 -33.4609 -25.6152 -59.0762 -59.0771 -59.0762h-393.846c-33.4619 0 -59.0771 25.6152 -59.0771 59.0762v236.309c0 33.4609 25.6152 59.0762 59.0771 59.0762h393.846zM468.692 66
l-124.077 126l149.692 118.154l-238.308 -128l-240.23 130l151.615 -118.154l-124.077 -128l151.615 110.23l61.0771 -39.3848l59.0771 39.3848z" />
    <glyph glyph-name="phone" unicode="&#xf10d;" 
d="M362.24 142.694c21.0938 -12.3564 66.5938 -38.9971 87.6885 -51.3369c8.44824 -4.94922 12.5439 -14.7451 10.2402 -24.2686c-2.27051 -9.28418 -7.74902 -21.333 -20.3955 -33.9795c-39.5088 -39.5098 -106.103 -60.4668 -254.617 88.0469
c-148.514 148.514 -127.539 215.125 -88.0469 254.617c12.6123 12.6299 24.6445 18.125 33.9111 20.3779c9.54102 2.33789 19.4053 -1.82617 24.3711 -10.291l51.2344 -87.5176c4.0625 -6.92969 4.02832 -15.5137 -0.0849609 -22.4092l-20.8047 -34.918
c-4.65918 -7.81641 -4.11328 -17.5791 1.48535 -24.7471c9.67676 -12.3906 25.958 -32.3408 43.3145 -49.6982c17.3574 -17.3564 37.3086 -33.6377 49.6982 -43.3145c7.16797 -5.59863 16.9307 -6.14453 24.7471 -1.48535l34.918 20.8047
c6.89551 4.0957 15.4111 4.18066 22.3408 0.119141z" />
    <glyph glyph-name="telegram-logo" unicode="&#xf110;" 
d="M417.125 384.062c5.375 0.25 11.1875 -0.8125 17.0625 -4.3125c5.8125 -3.4375 10.625 -9.875 12.5 -16.75s1.4375 -13.9375 -0.25 -21.5l-59.75 -306.062l-0.5625 -1.4375s-3.375 -8.9375 -12.0625 -15.9375c-8.625 -6.9375 -24.9375 -10.875 -41.0625 -3.8125
l-1.75 0.75l-77.3125 59.3125l-46.125 -42l-0.5625 -0.4375s-9.9375 -7.6875 -22.3125 -3.9375c-0.8125 0.125 -1.25 0.1875 -1.875 0.375c-0.1875 0.0625 -0.375 0.25 -0.625 0.3125l0.8125 -0.1875c-0.375 0.0625 -0.6875 0.125 -1 0.3125
c-1 0.375 -2 0.8125 -2.9375 1.375c-2.375 1.5 -4.375 3.375 -6.0625 5.625c-3.5 4.375 -6.3125 10.125 -9.1875 19.3125c-4.875 15.375 -25.1875 82.125 -28.6875 93.375l-78.125 26.3125h-0.125s-5.1875 1.8125 -10.625 5.6875
c-5.375 3.8125 -12.875 10.75 -14.3125 22.3125c-0.875 6.8125 1.5 13.4375 4.4375 17.75s6.3125 7.0625 9.375 9.0625c6 4.125 11.75 6 11.75 6l-1 -0.375s83.3125 35.125 168.062 70.8125c42.4375 17.875 85.1875 35.875 118.125 49.75
c32.9375 13.8125 54.625 22.9375 59.1875 24.75h0.0625c4.5 1.75 9.5625 3.3125 14.9375 3.5625zM415.5 351.25c-0.9375 0 -0.3125 0 -1.625 -0.5c-1.375 -0.5625 -25.6875 -10.6875 -58.5625 -24.5c-32.875 -13.875 -75.625 -31.875 -118.062 -49.75
c-84.75 -35.6875 -168.125 -70.8125 -168.125 -70.8125l-0.5 -0.1875l-0.5 -0.25s-0.4375 -0.1875 -0.5 -0.1875c0.0625 0 0.1875 -0.0625 0.25 -0.0625v-0.0625l93.375 -31.4375l0.0625 -0.3125l194.812 120.688s10.0625 5.125 9.625 -2.125c0 0 2.125 -1.25 -4.25 -7.1875
s-154.5 -144 -154.5 -144l-12 -76.625l57.125 52.0625l94.5625 -72.5c5.1875 -2.0625 6.1875 -1.4375 7.4375 -0.4375c1.1875 0.9375 1.625 1.875 1.875 2.3125l59.1875 302.875v0.1875c0.4375 1.9375 0.25 1.8125 0.3125 2.8125z" />
    <glyph glyph-name="viber" unicode="&#xf112;" 
d="M458.56 313.28c11.7607 -42 15.1602 -88.4404 10.3604 -141.96c-2.71973 -30.4404 -9.95996 -57.2803 -22.2002 -82.0801c-11.7197 -23.7598 -31.2393 -41.4805 -57.96 -52.6406c-29.2002 -12.1592 -60.2002 -14.7598 -86.96 -16.1992
c-22.0801 -1.2002 -44.3193 -2.04004 -66.0801 -2.48047c-2.83984 -0.0400391 -2.83984 -0.0400391 -5.59961 -3.24023l-2.2002 -2.43945c-16.1201 -17.6006 -61.3203 -61.2803 -63.2803 -63.1201l-2.95996 -2.87988h-18.2393l-0.0800781 10.1602
s-0.280273 47.5996 0 71.8799c0.0400391 2.7998 0.0400391 3.08008 -3.32031 4.63965c-3.63965 1.71973 -8.08008 3.28027 -12.6396 4.87988c-8.04004 2.83984 -16.3604 5.7998 -22.8408 9.87988c-25.4795 16.04 -42.6396 40.4404 -52.4795 74.6006
c-10.0801 35.04 -13.2803 72.8398 -9.75977 115.56c1.51953 18.4805 4.16016 37.8398 8.08008 59.2803c8.04004 44.1201 34.3594 76.7197 78.1992 96.8799c22.3604 10.2803 46.8809 16.6396 79.4404 20.6396c34.7598 4.24023 71.2002 3.40039 111.44 -2.59961
c29.0791 -4.36035 62.7598 -11.4805 92.0391 -31.6797c23.2002 -15.96 39.04 -38.5205 47.04 -67.0801zM362.32 105.16c9.16016 15 9.2793 25.3994 -5.80078 36.4795c-9.87988 7.24023 -19.5996 14.7607 -29.5996 21.8799
c-15.2402 10.8008 -31.7598 12.6807 -43.1201 -6.2793c-0.55957 -0.959961 -1.43945 -1.75977 -2.24023 -2.56055c-5.7998 -6.16016 -12.96 -7.71973 -20.5596 -4.59961c-28.8398 11.8799 -51.1602 31.04 -64.5996 59.5596
c-7.88086 16.7607 -5.7207 25.2002 9.08008 36.3203c1.47949 1.12012 2.87988 2.24023 4.23926 3.48047c6.48047 5.91992 8.2002 12.96 4.40039 20.9199c-8.71973 18.1592 -20.2803 34.3594 -34.9199 48.2793c-5.28027 5.08008 -11.6006 7.60059 -18.7197 6
c-18.6406 -4.08008 -37.0801 -17.6396 -37.6006 -41.6797c0.560547 -3.36035 0.480469 -6.95996 1.71973 -10c6.08008 -14.8799 11.3604 -30.2402 19 -44.3203c36.96 -68.3994 92.9199 -115.96 164.24 -146.159c8.52051 -3.60059 17.3203 -4.36035 25.96 -0.760742
c11.7998 4.91992 21.7998 12.5205 28.5205 23.4404zM267.72 294.4c33.04 0 59.96 -26.9199 59.96 -59.96c0 -3.40039 -0.279297 -6.76074 -0.839844 -10.04c-0.919922 -5.56055 2.83984 -10.8408 8.40039 -11.7607c0.599609 -0.120117 1.16016 -0.15918 1.71973 -0.15918
c4.91992 0 9.24023 3.55957 10.0801 8.55957c0.759766 4.36035 1.12012 8.87988 1.12012 13.4004c0 44.3594 -36.0801 80.4395 -80.4404 80.4395c-4.47949 0 -9 -0.360352 -13.3994 -1.12012c-5.60059 -0.919922 -9.36035 -6.2002 -8.44043 -11.7598
c0.959961 -5.59961 6.2002 -9.36035 11.7998 -8.44043c3.32031 0.560547 6.68066 0.84082 10.04 0.84082zM317.44 232.96c0 28.2402 -22.96 51.2002 -51.2002 51.2002c-5.64062 0 -10.2402 -4.60059 -10.2402 -10.2402s4.59961 -10.2402 10.2402 -10.2402
c16.9199 0 30.7197 -13.7998 30.7197 -30.7197c0 -5.63965 4.59961 -10.2402 10.2402 -10.2402c5.63965 0 10.2402 4.60059 10.2402 10.2402zM375.92 210.2c1.7998 8.04004 2.71973 16.3193 2.71973 24.6396c0 61.0801 -49.6797 110.76 -110.76 110.76
c-8.32031 0 -16.5996 -0.919922 -24.5996 -2.75977c-5.52051 -1.24023 -9 -6.71973 -7.7207 -12.2402c1.24023 -5.51953 6.7207 -9 12.2402 -7.71973c6.52051 1.48047 13.2803 2.24023 20.0801 2.24023c49.7598 0 90.2803 -40.5205 90.2803 -90.2803
c0 -6.7998 -0.759766 -13.5596 -2.24023 -20.0801c-1.24023 -5.51953 2.2002 -11 7.71973 -12.2793c0.760742 -0.160156 1.52051 -0.240234 2.28027 -0.240234c4.67969 0 8.91992 3.2002 10 7.95996z" />
    <glyph glyph-name="run" unicode="&#xf10e;" 
d="M353.28 417.28c25.4795 0 46.0801 -20.6406 46.0801 -46.0801c0 -25.4404 -20.6006 -46.0801 -46.0801 -46.0801c-25.4404 0 -46.0801 20.6396 -46.0801 46.0801c0 25.4395 20.6396 46.0801 46.0801 46.0801zM204.8 345.6c1.75977 0 3.52051 -0.239258 5.2002 -0.679688
h0.120117l83.6396 -18.2402l25.6406 -14.3193v-0.0400391c11.2393 -4.83984 18.5195 -15.9199 18.5195 -28.1602c0 -5.32031 -1.40039 -10.5605 -4.04004 -15.2002h0.0400391l-47.8398 -94.5596l55.3203 -49.04l0.0400391 -0.160156
c4.2793 -3.87988 6.71973 -9.36035 6.71973 -15.1201c0 -0.919922 -0.0800781 -1.87988 -0.200195 -2.7998l0.0400391 -0.160156l-20.7598 -109.32h-0.0400391c-2.24023 -12.0801 -12.7998 -20.8398 -25.1201 -20.8398c-14.1201 0 -25.5996 11.4805 -25.5996 25.5996
c0 1.68066 0.15918 3.36035 0.479492 5l17.4805 89.96l-77.2402 47.6406c-13.8398 6.95996 -22.6006 21.1201 -22.6406 36.5996c0 8.60059 2.7207 16.96 7.76074 23.9199v0.0400391l50.5195 82.3203l-45.1602 14.3604l-61.3594 -44.1602l-0.0400391 0.0400391
c-3.68066 -3.12012 -8.32031 -4.83984 -13.1602 -4.83984c-11.3203 0 -20.4805 9.15918 -20.4805 20.4795c0 7.12012 3.7207 13.7598 9.80078 17.4404l70.96 50.9199l0.319336 0.0800781h0.0400391c3.28027 2.12012 7.12012 3.23926 11.04 3.23926zM350.36 256.08
l18.2793 -43.5996h61.4404c11.3203 0 20.4795 -9.16016 20.4795 -20.4805s-9.15918 -20.4805 -20.4795 -20.4805h-71.6797c-8.2002 0 -15.2402 4.84082 -18.5205 11.8408l-0.0800781 0.0400391l-12.3994 27.3193zM179.36 157.04
c5.2793 -11.8398 14.2393 -21.9199 25.9199 -28.5596c0.0800781 -0.0400391 6.2002 -3.84082 14.6797 -9.08008l-23.4004 -33c-7.67969 -10.8408 -20.1191 -17.2803 -33.3994 -17.2803h-86.3604c-14.1602 0 -25.5996 11.4395 -25.5996 25.5996
s11.4395 25.6006 25.5996 25.6006h79.2803z" />
    <glyph glyph-name="skype" unicode="&#xf10f;" 
d="M446 166c14.583 -19.583 23.333 -43.75 23.333 -70c0 -64.833 -52.5 -117.333 -117.333 -117.333c-26.25 0 -50.417 8.75 -70 23.333c-8.5 -1.16699 -17.167 -2 -26 -2c-106.083 0 -192 85.917 -192 192c0 8.83301 0.833008 17.5 2 26
c-14.583 19.583 -23.333 43.75 -23.333 70c0 64.833 52.5 117.333 117.333 117.333c26.25 0 50.417 -8.75 70 -23.333c8.5 1.16699 17.167 2 26 2c106.083 0 192 -85.917 192 -192c0 -8.83301 -0.833008 -17.5 -2 -26zM256 64c37.25 0 106.667 12.917 106.667 79.667
c0 58.083 -58.667 68.333 -101.75 79.416c-11.834 3.08398 -55.834 7.91699 -55.834 30.917c0 6.91699 9.58398 23.333 44.084 23.333c35.5 0 43.25 -16.666 47.916 -25.25c3.91699 -6.83301 7.25 -12.166 11.167 -14.666c15.75 -10.084 30.167 -2.33398 35.25 2.91602
c5.08301 5.33398 7.66699 11.167 7.66699 17.834c0 28.916 -34.25 61.833 -98.5 61.833c-96.25 0 -103.334 -56.583 -103.334 -70.5c0 -27.75 15.917 -49.25 43.084 -59.75c28.916 -11.083 64 -17.75 83.916 -23.167c31.167 -8.58301 27.25 -25.666 27.25 -28.25
c0 -26.333 -36.166 -33.083 -51.5 -31.666c-17.416 1.66602 -35.083 -3.33398 -53.416 34.416c-3.33398 6.83398 -9.33398 21.584 -27.417 21.584c-7.83301 0 -27.417 -6 -27.417 -24.667c0 -36.667 40.917 -74 112.167 -74z" />
    <glyph glyph-name="javascript" unicode="&#xf109;" 
d="M443.76 407.04c15.04 0 27.2803 -12.2402 27.2803 -27.3203v-375.479c0 -15.04 -12.2402 -27.2803 -27.3203 -27.2803h-375.439c-15.0801 0 -27.3203 12.2402 -27.3203 27.3203v375.439c0 15.0801 12.2402 27.3203 27.3203 27.3203h375.479zM276.48 77.4805v135h-40.9609
v-128.761c0 -19.7598 -7.47949 -24.8398 -20.4795 -24.8398c-13.5996 0 -23.04 8.48047 -29.2402 19.4805l-32.2002 -19.4805c9.32031 -19.7197 32.1602 -40.96 63.8408 -40.96c35.04 0 59.04 18.6396 59.04 59.5605zM365.32 17.9199
c37.1201 0 64.7598 19.2803 64.7598 54.4404c0 32.6396 -18.7197 47.1592 -51.96 61.3594l-9.75977 4.2002c-16.7607 7.28027 -24 12 -24 23.7197c0 9.48047 7.23926 16.7607 18.6797 16.7607c11.2402 0 18.4404 -4.7207 25.1602 -16.7607l30.3994 19.5605
c-12.8799 22.6396 -30.7197 31.2803 -55.5596 31.2803c-34.8799 0 -57.2402 -22.3203 -57.2402 -51.6006c0 -31.8398 18.7598 -46.8799 46.96 -58.8799l9.75977 -4.2002c17.8008 -7.7998 26.6006 -12.5596 26.6006 -25.9199c0 -11.2002 -8.48047 -19.2803 -24.6797 -19.2803
c-19.2803 0 -28.4004 13.0801 -36.7607 26.7607l-30.7197 -20.4805c11.4805 -22.6797 32.0801 -40.96 68.3604 -40.96z" />
    <glyph glyph-name="mail" unicode="&#xf10c;" 
d="M299.385 110.538h-1.84668c-14.1533 -39.7686 -39.7686 -59.6152 -77 -59.6152c-27.9229 0 -50.3838 10.3848 -67.4609 31.2314c-17.1543 20.7686 -25.6924 49.6152 -25.6924 86.4609c0 47.6152 11.8457 86.3848 35.5381 116.308
c23.6152 29.8467 52.1543 44.7695 85.4619 44.7695c30.1533 0 49.0771 -12.1543 56.7695 -36.5381h1.23047l3 30.9229h68.2305c-9.07715 -88.6924 -13.6924 -146.615 -13.6924 -173.923c0 -29.1543 7.69238 -43.6924 23.0771 -43.6924
c16.2305 0 29.5381 11.0762 40.0771 33.0762c10.4609 22.0771 15.7686 50.9238 15.7686 86.4619c0 48.6924 -15.0762 88.6152 -45.2305 119.77c-30.1533 31.0762 -72.1533 46.6924 -126.153 46.6924c-57.8467 0 -105.924 -20.7695 -144.231 -62.3076
c-38.3076 -41.5391 -57.4609 -92.1543 -57.4609 -151.924c0 -57.8457 16.9229 -103.385 50.7686 -136.692c33.9238 -33.3076 80.6162 -50 140.308 -50c45.5391 0 87.1543 8.92383 125 26.8467v-59.6152c-34.6152 -15.1543 -79.0762 -22.7695 -133.461 -22.7695
c-74.6924 0 -135.385 22 -182.154 66c-46.8457 44.0771 -70.2305 103.23 -70.2305 177.538c0 75.7695 25 139.385 74.9229 191c49.9229 51.6162 114.231 77.4619 192.923 77.4619c72.7695 0 131.692 -20 176.692 -60.0771s67.4619 -92.9229 67.4619 -158.461
c0 -53.9238 -13.7695 -97.1543 -41.2305 -129.77c-27.5391 -32.5381 -61.6152 -48.8467 -102.231 -48.8467c-20 0 -36.3076 5.53906 -48.8457 16.5391c-12.5381 11.0771 -19.3076 25.4609 -20.3076 43.1533zM259 275.385c-18.1543 0 -33 -10.6924 -44.3848 -32
c-11.4609 -21.3848 -17.1533 -46.0771 -17.1533 -74.1543c0 -20 3.92285 -35.5381 11.6924 -46.6924c7.76855 -11.1533 17.7686 -16.6924 30.1533 -16.6924c19 0 34 10.4619 44.9229 31.5391c10.8467 21 16.3076 49.0771 16.3076 84.2305
c0 16.6924 -3.76855 29.7695 -11.3838 39.3848c-7.53906 9.53809 -17.6162 14.3848 -30.1543 14.3848z" />
    <glyph glyph-name="instagram-camera" unicode="&#xf108;" 
d="M183.5 368h145c56.875 0 103.5 -46.6875 103.5 -103.5v-145c0 -56.875 -46.6875 -103.5 -103.5 -103.5h-145c-56.875 0 -103.5 46.6875 -103.5 103.5v145c0 56.875 46.6875 103.5 103.5 103.5zM183.5 336c-39.5625 0 -71.5 -31.9375 -71.5 -71.5v-145
c0 -39.5625 31.9375 -71.5 71.5 -71.5h145c39.5625 0 71.5 31.9375 71.5 71.5v145c0 39.5625 -31.9375 71.5 -71.5 71.5h-145zM350.5 301c8.0625 0 14.5 -6.4375 14.5 -14.5s-6.4375 -14.5 -14.5 -14.5s-14.5 6.4375 -14.5 14.5s6.4375 14.5 14.5 14.5zM256 288
c52.8125 0 96 -43.1875 96 -96s-43.1875 -96 -96 -96s-96 43.1875 -96 96s43.1875 96 96 96zM256 256c-35.5625 0 -64 -28.4375 -64 -64s28.4375 -64 64 -64s64 28.4375 64 64s-28.4375 64 -64 64z" />
    <glyph glyph-name="home" unicode="&#xf106;" 
d="M393.846 408h19.6924c10.8467 0 19.6924 -8.8457 19.6924 -19.6924v-153.846l68.3076 -68.3076c7.69238 -7.69238 7.69238 -20 0 -27.6924c-3.8457 -3.84668 -8.46094 -6.1543 -13.5381 -6.1543s-10.3076 2.30762 -14.1543 6.1543l-217.846 217.846l-217.23 -217.23
c-7.69238 -7.69238 -20 -7.69238 -27.6924 0s-7.69238 20 0 27.6924l230.769 231.385c7.69238 7.69141 20.6162 7.69141 28.3086 0l104 -104v94.1533c0 10.8467 8.8457 19.6924 19.6914 19.6924zM256 320l216.615 -216.615v-108.308
c0 -32.6152 -26.4609 -59.0771 -59.0771 -59.0771h-315.076c-32.6162 0 -59.0771 26.4619 -59.0771 59.0771v108.308zM216.615 132.923c-10.8457 0 -19.6924 -8.8457 -19.6924 -19.6924v-118.153c0 -10.8467 8.84668 -19.6924 19.6924 -19.6924h78.7695
c10.8457 0 19.6924 8.8457 19.6924 19.6924v118.153c0 10.8467 -8.84668 19.6924 -19.6924 19.6924h-78.7695z" />
    <glyph glyph-name="work" unicode="&#xf114;" 
d="M256 408.615c26.3076 0 50.3076 -7.8457 68.3076 -21.5381c12.6152 -9.61523 21.7695 -22.6924 26.4619 -37.5391h102.153c32.3848 0 59.0771 -26.6924 59.0771 -59.0762v-295.385c0 -32.3848 -26.6924 -59.0771 -59.0771 -59.0771h-393.846
c-32.3848 0 -59.0771 26.6924 -59.0771 59.0771v157.538c-0.154297 1.23047 -0.154297 2.46191 0 3.69238v134.154c0 32.3838 26.6924 59.0762 59.0771 59.0762h102.153c4.69238 14.8467 13.8467 27.9238 26.4619 37.5391c18 13.6924 42 21.5381 68.3076 21.5381z
M256 369.23c-18.5381 0 -34.1543 -5.8457 -44.3076 -13.5381c-2.53809 -1.92285 -4.92285 -4.07715 -6.76953 -6.1543h102.154c-1.84668 2.07715 -4.23145 4.23145 -6.76953 6.1543c-10.1533 7.69238 -25.7695 13.5381 -44.3076 13.5381zM59.0771 310.154
c-11.1543 0 -19.6924 -8.53906 -19.6924 -19.6924v-134.154c0.15332 -1.23047 0.15332 -2.46191 0 -3.69238c0 -11.1533 8.53809 -19.6924 19.6924 -19.6924h157.538c0 10.8467 8.84668 19.6924 19.6924 19.6924h39.3848c10.8457 0 19.6924 -8.8457 19.6924 -19.6924
h157.538c11.1543 0 19.6924 8.53906 19.6924 19.6924v1.23047v1.84668v134.77c0 11.1533 -8.53809 19.6924 -19.6924 19.6924h-393.846zM216.615 93.5381v-19.6924c0 -10.8457 8.84668 -19.6914 19.6924 -19.6914h39.3848c10.8457 0 19.6924 8.8457 19.6924 19.6914v19.6924
h-78.7695z" />
    <glyph glyph-name="vk" unicode="&#xf113;" 
d="M100.385 448h311.308c55.1533 0 100.308 -45.1543 100.308 -100.308v-311.385c0 -55.1533 -45.1543 -100.308 -100.385 -100.308h-311.23c-55.2305 0 -100.385 45.1543 -100.385 100.308v311.385c0 55.1533 45.1543 100.308 100.385 100.308zM380 138.154
c0 18.8457 -5.23047 33.8457 -15.4619 45c-10.3838 11.1533 -24.0762 18.4609 -41.2305 22.1533v1.38477c11.9229 5.07715 21.2305 12.7695 28 23.4619c6.84668 10.5381 10.2305 22.6152 10.2305 36.1533c0 11.6924 -2.53809 22 -7.46094 31
c-4.84668 8.92285 -12.3076 16.0771 -22.2314 21.4619c-9.15332 5 -19 8.23047 -29.5381 9.76855c-10.5381 1.53906 -26 2.30762 -46.3848 2.30762h-99.6152v-277.769h112.615c19.3076 0 35.1543 1.69238 47.6152 5.23047c12.6162 3.46191 24.0771 9.30762 34.5391 17.4619
c8.8457 6.92285 15.8457 15.4609 21.0771 25.9229c5.23047 10.4619 7.8457 22.6152 7.8457 36.4619zM290.615 252.308c0 -6.07715 -1.07715 -11.4619 -3.23047 -16.0771c-2.07715 -4.53809 -6 -8.23047 -11.4619 -10.8457
c-5.07715 -2.30762 -10.1533 -3.53906 -14.9229 -3.84668c-4.76953 -0.230469 -13.1543 -0.383789 -25 -0.383789h-8.8457v58.7686h4.8457c12.3848 0 21.8457 -0.0771484 28.1543 -0.230469c6.30762 -0.230469 11.6152 -1.30762 16.2305 -3.30762
c4.92285 -2.1543 8.53809 -5.61523 10.7695 -10.3076c2.30762 -4.69238 3.46094 -9.30762 3.46094 -13.7695zM308.077 139.385c0 -6.69238 -1.46191 -12.6924 -4.30762 -18c-3 -5.23047 -7.61523 -9.1543 -13.9238 -11.9229
c-7.15332 -3.1543 -14.3076 -4.76953 -21.3076 -5.07715c-6.92285 -0.307617 -19.4609 -0.384766 -37.6152 -0.384766h-3.76855v69.5381h12.9229c12.3848 0 22.3076 -0.0761719 29.6924 -0.230469c7.38477 -0.230469 13.2305 -1.07715 17.4609 -2.76953
c6.92383 -2.46094 12.1543 -6.07617 15.6924 -11c3.53906 -4.8457 5.1543 -11.5381 5.1543 -20.1533z" />
  </font>
</defs>
</svg>
